<svg width="17" height="19" viewBox="0 0 17 19" fill="none" xmlns="http://www.w3.org/2000/svg">
<path d="M1 4.33333H2.66667M2.66667 4.33333H16M2.66667 4.33333L2.66663 16C2.66663 16.442 2.84222 16.8659 3.15478 17.1785C3.46734 17.491 3.89127 17.6666 4.33329 17.6666H12.6666C13.1087 17.6666 13.5326 17.491 13.8451 17.1785C14.1577 16.8659 14.3333 16.442 14.3333 16V4.33334L2.66667 4.33333ZM6.83337 8.5V13.5M10.1666 8.5V13.5M5.16663 4.33334V2.66667C5.16663 2.22464 5.34222 1.80072 5.65478 1.48816C5.96734 1.1756 6.39127 1 6.83329 1H10.1666C10.6087 1 11.0326 1.1756 11.3451 1.48816C11.6577 1.80072 11.8333 2.22464 11.8333 2.66667V4.33334H5.16663Z" stroke="#000" stroke-width="1.2" stroke-linecap="round" stroke-linejoin="round"/>
</svg>
