<svg width="19" height="20" viewBox="0 0 19 20" fill="none" xmlns="http://www.w3.org/2000/svg">
<path d="M5 8H2C1.44772 8 1 8.44771 1 9V18C1 18.5523 1.44772 19 2 19H5C5.55228 19 6 18.5523 6 18V9C6 8.44772 5.55228 8 5 8Z" fill="#67CC7D" stroke="#67CC7D"/>
<path d="M10.8323 1.57679L8.12986 7.36236C8.06797 7.49486 8.03589 7.63933 8.03589 7.78557V17.9006C8.03589 18.4528 8.4836 18.9006 9.03589 18.9006H15.416C15.9102 18.9006 16.3303 18.5395 16.4047 18.0509L17.825 8.71392C17.917 8.10868 17.4485 7.56354 16.8363 7.56354H13.594C12.9542 7.56354 12.479 6.97105 12.6178 6.34651L13.4286 2.69976C13.4731 2.49961 13.455 2.29062 13.3767 2.1011L13.1774 1.61836C13.0229 1.24413 12.658 1 12.2531 1H11.7384C11.35 1 10.9967 1.22489 10.8323 1.57679Z" fill="#67CC7D" stroke="#67CC7D"/>
</svg>
