<svg width="28" height="28" viewBox="0 0 28 28" fill="none" xmlns="http://www.w3.org/2000/svg">
<line x1="6" y1="21.0667" x2="22" y2="21.0667" stroke="white" stroke-width="2" stroke-linecap="round"/>
<path d="M13.7416 4.83333H14.2585C14.8319 4.83333 15.1217 4.1425 14.72 3.73333C14.3245 3.33052 13.6755 3.33052 13.28 3.73333C12.8783 4.1425 13.1682 4.83333 13.7416 4.83333Z" stroke="white" stroke-width="2"/>
<path d="M22.28 21.3333V21.3333C20.9269 20.3932 20.12 18.85 20.12 17.2024V10.7143C20.12 10.2912 20.0701 9.86971 19.9715 9.45837L19.9569 9.39764C19.8266 8.85421 19.6063 8.3364 19.3051 7.86563V7.86563C19.1288 7.58999 18.9259 7.33227 18.6994 7.09617L18.6255 7.01921C18.1848 6.55988 17.6721 6.17555 17.1075 5.88137V5.88137C16.7171 5.67791 16.3049 5.51917 15.8789 5.40816L15.8445 5.39919C15.3369 5.26695 14.8145 5.20001 14.29 5.20001H13.64" stroke="white" stroke-width="2"/>
<path d="M5.72 21.3333V21.3333C7.0731 20.3932 7.88 18.85 7.88 17.2024V10.7143C7.88 10.2912 7.92985 9.86971 8.02852 9.45837L8.04309 9.39764C8.17345 8.85421 8.39375 8.3364 8.69489 7.86563V7.86563C8.87121 7.58999 9.07409 7.33227 9.30063 7.09617L9.37447 7.01921C9.8152 6.55988 10.3279 6.17555 10.8925 5.88137V5.88137C11.2829 5.67791 11.6951 5.51917 12.1211 5.40816L12.1555 5.39919C12.6631 5.26695 13.1855 5.20001 13.71 5.20001H14.36" stroke="white" stroke-width="2"/>
<path d="M16.52 22.8C16.52 23.3835 16.2545 23.9431 15.7819 24.3556C15.3093 24.7682 14.6684 25 14 25C13.3317 25 12.6907 24.7682 12.2181 24.3556C11.7455 23.9431 11.48 23.3835 11.48 22.8L14 22.8H16.52Z" fill="white"/>
</svg>
