<svg width="19" height="20" viewBox="0 0 19 20" fill="none" xmlns="http://www.w3.org/2000/svg">
<path d="M14 12H17C17.5523 12 18 11.5523 18 11V2C18 1.44772 17.5523 1 17 1H14C13.4477 1 13 1.44772 13 2V11C13 11.5523 13.4477 12 14 12Z" fill="#E35050" stroke="#E35050"/>
<path d="M8.16766 18.4232L10.8701 12.6376C10.932 12.5051 10.9641 12.3607 10.9641 12.2144V2.09945C10.9641 1.54716 10.5164 1.09945 9.96411 1.09945H3.58398C3.08977 1.09945 2.66967 1.46047 2.59535 1.94906L1.17503 11.2861C1.08296 11.8913 1.55146 12.4365 2.16366 12.4365H5.40599C6.04578 12.4365 6.52101 13.029 6.38216 13.6535L5.5714 17.3002C5.5269 17.5004 5.545 17.7094 5.62325 17.8989L5.82257 18.3816C5.97708 18.7559 6.34201 19 6.74688 19H7.26163C7.65003 19 8.00329 18.7751 8.16766 18.4232Z" fill="#E35050" stroke="#E35050"/>
</svg>
