<svg width="27" height="27" viewBox="0 0 27 27" fill="none" xmlns="http://www.w3.org/2000/svg">
<path d="M13.5 19.4062C16.7619 19.4062 19.4062 16.7619 19.4062 13.5C19.4062 10.2381 16.7619 7.59375 13.5 7.59375C10.2381 7.59375 7.59375 10.2381 7.59375 13.5C7.59375 16.7619 10.2381 19.4062 13.5 19.4062Z" stroke="#F8F9FA" stroke-width="1.5" stroke-miterlimit="10" stroke-linecap="round" stroke-linejoin="round"/>
<path d="M24.851 11.3906C24.567 11.3882 24.2914 11.2942 24.0651 11.1225C23.8388 10.9509 23.674 10.7108 23.595 10.438C23.3948 9.77806 23.1298 9.13948 22.804 8.53158C22.6662 8.28256 22.6124 7.99568 22.6508 7.71365C22.6892 7.43162 22.8177 7.16953 23.0171 6.96642C23.2613 6.7213 23.3984 6.38938 23.3984 6.04336C23.3984 5.69734 23.2613 5.36542 23.0171 5.1203L21.881 3.98208C21.6358 3.73785 21.3039 3.60073 20.9579 3.60073C20.6119 3.60073 20.28 3.73785 20.0348 3.98208C19.8317 4.18148 19.5697 4.30995 19.2876 4.34834C19.0056 4.38672 18.7187 4.33299 18.4697 4.19513C17.8618 3.86935 17.2232 3.60439 16.5632 3.40411C16.2903 3.32547 16.0501 3.16084 15.8782 2.93472C15.7064 2.70859 15.6121 2.43304 15.6094 2.14903C15.6087 1.80305 15.471 1.47144 15.2263 1.2268C14.9817 0.982154 14.6501 0.844419 14.3041 0.84375H12.6959C12.3499 0.844419 12.0183 0.982154 11.7737 1.2268C11.529 1.47144 11.3913 1.80305 11.3906 2.14903C11.3882 2.43302 11.2942 2.70864 11.1225 2.93492C10.9509 3.16119 10.7108 3.32604 10.438 3.40495C9.77806 3.60523 9.13948 3.87019 8.53158 4.19597C8.28256 4.33383 7.99568 4.38757 7.71365 4.34918C7.43162 4.31079 7.16953 4.18233 6.96642 3.98292C6.7213 3.7387 6.38938 3.60157 6.04336 3.60157C5.69734 3.60157 5.36542 3.7387 5.1203 3.98292L3.98334 5.12198C3.73912 5.36711 3.60199 5.69903 3.60199 6.04505C3.60199 6.39107 3.73912 6.72299 3.98334 6.96811C4.18275 7.17122 4.31121 7.4333 4.3496 7.71533C4.38799 7.99736 4.33425 8.28425 4.19639 8.53327C3.87061 9.14116 3.60565 9.77975 3.40537 10.4397C3.32614 10.7123 3.1611 10.952 2.93476 11.1233C2.70843 11.2946 2.43288 11.3884 2.14903 11.3906C1.80305 11.3913 1.47144 11.529 1.2268 11.7737C0.982154 12.0183 0.844419 12.3499 0.84375 12.6959V14.3037C0.844307 14.6497 0.981993 14.9814 1.22665 15.2262C1.4713 15.4709 1.80298 15.6087 2.14903 15.6094C2.43302 15.6118 2.70864 15.7058 2.93492 15.8775C3.16119 16.0491 3.32604 16.2892 3.40495 16.562C3.60523 17.2219 3.87019 17.8605 4.19597 18.4684C4.33383 18.7174 4.38757 19.0043 4.34918 19.2864C4.31079 19.5684 4.18233 19.8305 3.98292 20.0336C3.7387 20.2787 3.60157 20.6106 3.60157 20.9566C3.60157 21.3027 3.7387 21.6346 3.98292 21.8797L5.12198 23.0188C5.36711 23.263 5.69903 23.4001 6.04505 23.4001C6.39107 23.4001 6.72299 23.263 6.96811 23.0188C7.17122 22.8194 7.4333 22.6909 7.71533 22.6525C7.99736 22.6141 8.28425 22.6679 8.53327 22.8057C9.14116 23.1315 9.77975 23.3965 10.4397 23.5967C10.7119 23.6759 10.9514 23.8406 11.1227 24.0665C11.294 24.2924 11.3879 24.5675 11.3906 24.851C11.3913 25.1969 11.529 25.5286 11.7737 25.7732C12.0183 26.0178 12.3499 26.1556 12.6959 26.1562H14.3037C14.6497 26.1557 14.9814 26.018 15.2262 25.7734C15.4709 25.5287 15.6087 25.197 15.6094 24.851C15.6118 24.567 15.7058 24.2914 15.8775 24.0651C16.0491 23.8388 16.2892 23.674 16.562 23.595C17.2219 23.3948 17.8605 23.1298 18.4684 22.804C18.7174 22.6662 19.0043 22.6124 19.2864 22.6508C19.5684 22.6892 19.8305 22.8177 20.0336 23.0171C20.2787 23.2613 20.6106 23.3984 20.9566 23.3984C21.3027 23.3984 21.6346 23.2613 21.8797 23.0171L23.0188 21.8801C23.263 21.635 23.4001 21.3031 23.4001 20.9571C23.4001 20.611 23.263 20.2791 23.0188 20.034C22.8194 19.8309 22.6909 19.5688 22.6525 19.2868C22.6141 19.0047 22.6679 18.7179 22.8057 18.4688C23.1315 17.8609 23.3965 17.2224 23.5967 16.5624C23.6755 16.2898 23.8401 16.0498 24.066 15.8781C24.2919 15.7065 24.5672 15.6122 24.851 15.6094C25.1969 15.6087 25.5286 15.471 25.7732 15.2263C26.0178 14.9817 26.1556 14.6501 26.1562 14.3041V12.6959C26.1556 12.3499 26.0178 12.0183 25.7732 11.7737C25.5286 11.529 25.1969 11.3913 24.851 11.3906V11.3906Z" stroke="#F8F9FA" stroke-width="1.5" stroke-miterlimit="10" stroke-linecap="round" stroke-linejoin="round"/>
</svg>
