<svg width="31" height="31" viewBox="0 0 31 31" fill="none" xmlns="http://www.w3.org/2000/svg">
<path d="M30.4655 3.20689H0.534483C0.239448 3.20689 0 3.44581 0 3.74138V27.2586C0 27.5542 0.239448 27.7931 0.534483 27.7931H30.4655C30.7606 27.7931 31 27.5542 31 27.2586V3.74138C31 3.44581 30.7606 3.20689 30.4655 3.20689ZM29.931 26.7241H1.06897V4.27586H29.931V26.7241Z" fill="#212529"/>
<path d="M8.55173 15.0393C10.1931 15.0393 11.5283 13.7041 11.5283 12.0633C11.5283 10.4213 10.1931 9.0862 8.55173 9.0862C6.91033 9.0862 5.5752 10.4213 5.5752 12.0627C5.5752 13.7041 6.91033 15.0393 8.55173 15.0393ZM8.55173 10.1552C9.60359 10.1552 10.4593 11.0114 10.4593 12.0627C10.4593 13.1141 9.60359 13.9703 8.55173 13.9703C7.49987 13.9703 6.64416 13.1146 6.64416 12.0633C6.64416 11.0119 7.49987 10.1552 8.55173 10.1552Z" fill="#212529"/>
<path d="M3.74138 24.5862C3.86645 24.5862 3.99259 24.5424 4.09414 24.4531L12.8132 16.7769L18.3194 22.2826C18.5284 22.4916 18.8662 22.4916 19.0752 22.2826C19.2841 22.0736 19.2841 21.7358 19.0752 21.5268L16.5059 18.9576L21.413 13.5839L27.4318 19.1013C27.6493 19.3007 27.9877 19.2857 28.187 19.0682C28.3864 18.8507 28.372 18.5123 28.1539 18.313L21.7401 12.4337C21.6353 12.338 21.4958 12.2904 21.3553 12.2936C21.2136 12.3 21.08 12.3626 20.9843 12.4673L15.7496 18.2007L13.2146 15.6657C13.0147 15.4663 12.695 15.4562 12.4834 15.6422L3.38809 23.6503C3.16628 23.8454 3.1449 24.1832 3.33999 24.405C3.44582 24.5253 3.59333 24.5862 3.74138 24.5862Z" fill="#212529"/>
</svg>
